<svg width="64" height="64" viewBox="0 0 64 64" xmlns="http://www.w3.org/2000/svg">
  <defs>
    <radialGradient id="sunGradient" cx="0.3" cy="0.3" r="0.8">
      <stop offset="0%" style="stop-color:#FFF8DC"/>
      <stop offset="30%" style="stop-color:#FFD700"/>
      <stop offset="70%" style="stop-color:#FF8C00"/>
      <stop offset="100%" style="stop-color:#FF4500"/>
    </radialGradient>
  </defs>
  <g>
    <path d="M32 8 L34 2 L30 2 Z" fill="#FFD700"/>
    <path d="M32 56 L34 62 L30 62 Z" fill="#FFD700"/>
    <path d="M8 32 L2 30 L2 34 Z" fill="#FFD700"/>
    <path d="M56 32 L62 30 L62 34 Z" fill="#FFD700"/>
    <path d="M14.6 14.6 L10.8 10.8 L13.2 8.4 Z" fill="#FFD700"/>
    <path d="M49.4 49.4 L53.2 53.2 L50.8 55.6 Z" fill="#FFD700"/>
    <path d="M14.6 49.4 L10.8 53.2 L13.2 55.6 Z" fill="#FFD700"/>
    <path d="M49.4 14.6 L53.2 10.8 L50.8 8.4 Z" fill="#FFD700"/>
  </g>
  <circle cx="32" cy="32" r="22" fill="url(#sunGradient)" stroke="#FFD700" stroke-width="2"/>
  <circle cx="28" cy="26" r="2" fill="#FF4500" opacity="0.6"/>
  <circle cx="38" cy="30" r="1.5" fill="#FF4500" opacity="0.6"/>
  <circle cx="32" cy="38" r="2.5" fill="#FF4500" opacity="0.6"/>
</svg>
